<?xml version="1.0" encoding="UTF-8" standalone="no"?>
<svg width="272px" height="72px" viewBox="0 0 272 72" version="1.1" xmlns="http://www.w3.org/2000/svg" xmlns:xlink="http://www.w3.org/1999/xlink" xmlns:sketch="http://www.bohemiancoding.com/sketch/ns">
    <title>logo</title>
    <description>Created with Sketch (http://www.bohemiancoding.com/sketch)</description>
    <defs></defs>
    <g id="Page-1" stroke="none" stroke-width="1" fill="none" fill-rule="evenodd" sketch:type="MSPage">
        <g id="missionbit_logo_horizontal" sketch:type="MSLayerGroup" transform="translate(1.000000, 1.000000)">
            <polygon id="Polygon-1" fill="#FFFFFF" sketch:type="MSShapeGroup" points="32.3319328 9.2 51.4900158 20.125 51.4900158 41.975 32.3319328 52.9 13.1738498 41.975 13.1738498 20.125 "></polygon>
            <path d="M32.2786134,6.85515 L11.4489076,18.91635 L11.3445378,43.2262 L32.0596639,55.4852 L52.8893697,43.4125 L52.9937395,19.103225 L32.2786134,6.85515 Z M50.1530672,21.79365 L50.1530672,42.0601 L39.7280042,47.886575 L39.7280042,32.806625 L32.1526891,36.9794 L24.6102731,32.900925 L24.6102731,47.886575 L14.1829412,42.0601 L14.1829412,21.980525 L31.9683403,31.58245 L31.9904622,31.5376 L32.0131513,31.58245 L50.1530672,21.79365 Z" id="Fill-4" fill="#424242" sketch:type="MSShapeGroup"></path>
            <path d="M33.8719538,5.5545 L43.2266597,-0.04025 L64.3490546,12.050275 L64.5708403,36.633825 L55.2626471,42.202125 L55.0340546,17.668025" id="Fill-5" fill="#DC139C" sketch:type="MSShapeGroup"></path>
            <path d="M30.4663235,5.5545 L21.1116176,-0.04025 L-0.0113445378,12.050275 L-0.234831933,36.633825 L9.07563025,42.202125 L9.30365546,17.668025" id="Fill-6" fill="#FB8B00" sketch:type="MSShapeGroup"></path>
            <path d="M11.1471429,45.8068 L11.1851471,56.8169 L32.2321008,69.04025 L53.1905672,56.669125 L53.1531303,45.7125 L32.2343697,58.052575" id="Fill-7" fill="#0169C9" sketch:type="MSShapeGroup"></path>
            <path d="M96.0343487,28.875925 L96.0343487,46.90735 L91.9928571,46.90735 L91.9928571,28.875925 L82.7572689,28.875925 L82.7572689,46.90735 L78.7339286,46.90735 L78.7339286,24.77905 L82.7572689,24.77905 L82.7572689,28.687325 C82.779958,28.147975 82.9013445,27.64025 83.1208613,27.15955 C83.3381092,26.68115 83.6285294,26.266 83.9892857,25.91065 C84.3551471,25.558175 84.7782983,25.282175 85.2570378,25.084375 C85.7352101,24.881975 86.2451471,24.77905 86.7902521,24.77905 L91.9928571,24.77905 C92.5288866,24.77905 93.0382563,24.881975 93.5169958,25.084375 C93.9957353,25.282175 94.4166176,25.558175 94.7847479,25.91065 C95.150042,26.266 95.445,26.68115 95.6707563,27.15955 C95.9010504,27.64025 96.0207353,28.147975 96.0343487,28.687325 C96.0627101,28.147975 96.1801261,27.64025 96.3888655,27.15955 C96.6015756,26.68115 96.887458,26.266 97.2482143,25.91065 C97.6140756,25.558175 98.0372269,25.282175 98.5159664,25.084375 C98.9941387,24.881975 99.5040756,24.77905 100.049181,24.77905 L105.260294,24.77905 C105.814475,24.77905 106.337458,24.886575 106.829244,25.1022 C107.325567,25.317825 107.753256,25.609925 108.11458,25.9739 C108.479874,26.340175 108.765756,26.77315 108.973929,27.27685 C109.186639,27.775375 109.293277,28.30725 109.293277,28.875925 L109.293277,46.90735 L105.260294,46.90735 L105.260294,28.875925 L96.0343487,28.875925 Z M114.025651,24.77905 L118.067143,24.77905 L118.067143,46.90735 L114.025651,46.90735 L114.025651,24.77905 Z M113.822017,16.261575 L118.271345,16.261575 L118.271345,20.5206 L113.822017,20.5206 L113.822017,16.261575 Z M135.848571,42.810475 L135.848571,37.680325 L126.276618,37.680325 C125.713929,37.680325 125.188676,37.5774 124.69916,37.3658 C124.207374,37.150175 123.779685,36.860375 123.413824,36.494675 C123.053067,36.1238 122.767185,35.69025 122.554475,35.191725 C122.345735,34.6886 122.244202,34.15615 122.244202,33.59265 L122.244202,28.875925 C122.244202,28.30725 122.345735,27.775375 122.554475,27.27685 C122.767185,26.77315 123.053067,26.340175 123.413824,25.9739 C123.779685,25.609925 124.207374,25.317825 124.69916,25.1022 C125.188676,24.886575 125.713929,24.77905 126.276618,24.77905 L139.048298,24.77905 L139.048298,28.875925 L126.276618,28.875925 L126.276618,33.59265 L135.848571,33.59265 C136.408992,33.59265 136.931975,33.700175 137.417521,33.9158 C137.900231,34.1274 138.325651,34.416625 138.693782,34.7875 C139.065882,35.153775 139.358571,35.585025 139.571282,36.08125 C139.783992,36.579775 139.890063,37.112225 139.890063,37.680325 L139.890063,42.810475 C139.890063,43.380875 139.783992,43.915625 139.571282,44.41875 C139.358571,44.917275 139.065882,45.348525 138.693782,45.7125 C138.325651,46.078775 137.900231,46.368575 137.417521,46.5842 C136.931975,46.799825 136.408992,46.90735 135.848571,46.90735 L122.244202,46.90735 L122.244202,42.810475 L135.848571,42.810475 Z M157.117311,42.810475 L157.117311,37.680325 L147.545357,37.680325 C146.982668,37.680325 146.457416,37.5774 145.967899,37.3658 C145.476113,37.150175 145.048424,36.860375 144.682563,36.494675 C144.321807,36.1238 144.035924,35.69025 143.823214,35.191725 C143.615042,34.6886 143.512941,34.15615 143.512941,33.59265 L143.512941,28.875925 C143.512941,28.30725 143.615042,27.775375 143.823214,27.27685 C144.035924,26.77315 144.321807,26.340175 144.682563,25.9739 C145.048424,25.609925 145.476113,25.317825 145.967899,25.1022 C146.457416,24.886575 146.982668,24.77905 147.545357,24.77905 L160.317038,24.77905 L160.317038,28.875925 L147.545357,28.875925 L147.545357,33.59265 L157.117311,33.59265 C157.677731,33.59265 158.200714,33.700175 158.686261,33.9158 C159.168971,34.1274 159.594391,34.416625 159.962521,34.7875 C160.334622,35.153775 160.627311,35.585025 160.840021,36.08125 C161.052731,36.579775 161.158803,37.112225 161.158803,37.680325 L161.158803,42.810475 C161.158803,43.380875 161.052731,43.915625 160.840021,44.41875 C160.627311,44.917275 160.334622,45.348525 159.962521,45.7125 C159.594391,46.078775 159.168971,46.368575 158.686261,46.5842 C158.200714,46.799825 157.677731,46.90735 157.117311,46.90735 L143.512941,46.90735 L143.512941,42.810475 L157.117311,42.810475 Z M165.410735,24.77905 L169.452227,24.77905 L169.452227,46.90735 L165.410735,46.90735 L165.410735,24.77905 Z M165.207101,16.261575 L169.656429,16.261575 L169.656429,20.5206 L165.207101,20.5206 L165.207101,16.261575 Z M192.932584,42.810475 C192.932584,43.380875 192.825945,43.915625 192.613235,44.41875 C192.400525,44.917275 192.112941,45.348525 191.753887,45.7125 C191.392563,46.078775 190.969412,46.368575 190.486134,46.5842 C190.001155,46.799825 189.478172,46.90735 188.917752,46.90735 L178.078046,46.90735 C177.528971,46.90735 177.008256,46.799825 176.518172,46.5842 C176.026387,46.368575 175.598697,46.078775 175.233403,45.7125 C174.87208,45.348525 174.586197,44.917275 174.373487,44.41875 C174.160777,43.915625 174.054706,43.380875 174.054706,42.810475 L174.054706,28.875925 C174.054706,28.30725 174.160777,27.775375 174.373487,27.27685 C174.586197,26.77315 174.87208,26.340175 175.233403,25.9739 C175.598697,25.609925 176.026387,25.317825 176.518172,25.1022 C177.008256,24.886575 177.528971,24.77905 178.078046,24.77905 L188.917752,24.77905 C189.478172,24.77905 190.001155,24.886575 190.486134,25.1022 C190.969412,25.317825 191.392563,25.609925 191.753887,25.9739 C192.112941,26.340175 192.400525,26.77315 192.613235,27.27685 C192.825945,27.775375 192.932584,28.30725 192.932584,28.875925 L192.932584,42.810475 Z M178.078046,42.810475 L188.917752,42.810475 L188.917752,28.875925 L178.078046,28.875925 L178.078046,42.810475 Z M216.689748,46.90735 L212.648256,46.90735 L212.648256,28.875925 L201.400714,28.875925 L201.400714,46.90735 L197.377374,46.90735 L197.377374,24.77905 L201.400714,24.77905 L201.400714,28.687325 C201.423403,28.147975 201.54479,27.64025 201.764307,27.15955 C201.981555,26.68115 202.271975,26.266 202.632731,25.91065 C202.998592,25.558175 203.421744,25.282175 203.900483,25.084375 C204.378655,24.881975 204.888592,24.77905 205.433697,24.77905 L212.648256,24.77905 C213.208676,24.77905 213.733929,24.886575 214.225714,25.1022 C214.715231,25.317825 215.140651,25.609925 215.501975,25.9739 C215.867269,26.340175 216.157689,26.77315 216.370399,27.27685 C216.583109,27.775375 216.689748,28.30725 216.689748,28.875925 L216.689748,46.90735 Z" id="Fill-8" fill="#424242" sketch:type="MSShapeGroup"></path>
            <path d="M220.832773,15.4307 L220.832773,42.79955 C220.832773,43.45505 220.959265,44.0841 221.200903,44.672325 L221.200903,44.688425 C221.45105,45.258825 221.798761,45.76885 222.213403,46.206425 L222.213403,46.220225 L222.228718,46.220225 C222.658676,46.642275 223.161807,46.99475 223.726765,47.2489 L223.739811,47.2489 C224.320651,47.49155 224.938929,47.6192 225.577059,47.6192 L236.866008,47.6192 C237.513214,47.6192 238.133193,47.49385 238.714034,47.2489 L238.729349,47.2489 C239.294307,46.993025 239.79063,46.646875 240.211513,46.220225 C240.641471,45.784375 240.987479,45.263425 241.22458,44.688425 C241.226282,44.683825 241.222311,44.674625 241.22458,44.672325 C241.481534,44.0841 241.621071,43.45505 241.621071,42.79955 L241.621071,28.80865 C241.621071,28.152575 241.481534,27.508 241.22458,26.9192 C241.22458,26.915175 241.226282,26.908275 241.22458,26.903675 C240.989181,26.337875 240.650546,25.83705 240.227395,25.416725 C240.218319,25.4081 240.220588,25.3943 240.211513,25.3874 L240.198466,25.4012 C239.782122,24.97225 239.2875,24.6284 238.729349,24.39035 C238.72708,24.38805 238.731618,24.377125 238.729349,24.374825 C238.724811,24.372525 238.718571,24.377125 238.714034,24.374825 C238.133193,24.116075 237.513214,23.988425 236.866008,23.988425 L229.627059,23.988425 C228.995735,23.988425 228.386534,24.116075 227.821576,24.358725 C227.817038,24.361025 227.8125,24.358725 227.807962,24.358725 C227.254349,24.58815 226.753487,24.909 226.323529,25.327025 C226.308214,25.34485 226.29687,25.369575 226.281555,25.3874 L226.281555,15.4307 L220.832773,15.4307 Z M245.365336,15.4307 L244.66084,15.4307 L244.66084,21.144475 L250.532773,21.144475 L250.532773,15.4307 L245.365336,15.4307 Z M257.578866,17.1419 L257.578866,23.988425 L252.22084,23.988425 L252.22084,29.5251 L257.578866,29.5251 L257.578866,42.79955 C257.578866,43.45505 257.689475,44.0841 257.931113,44.672325 L257.946429,44.688425 C258.198845,45.263425 258.542584,45.784375 258.974244,46.220225 L258.987857,46.220225 C259.420084,46.642275 259.922647,46.99475 260.485903,47.2489 L260.501218,47.2489 C261.079223,47.49155 261.699769,47.6192 262.33563,47.6192 L270.234832,47.6192 L270.234832,42.0831 L263.040126,42.0831 L263.040126,29.5228 L270.234832,29.5228 L270.234832,23.988425 L263.040126,23.988425 L263.040126,17.1419 L257.578866,17.1419 Z M244.866744,47.6192 L250.326303,47.6192 L250.326303,23.988425 L244.866744,23.988425 L244.866744,47.6192 Z M226.281555,29.5251 L236.161513,29.5251 L236.161513,42.084825 L226.281555,42.084825 L226.281555,29.5251 Z" id="Fill-9" fill="#424242" sketch:type="MSShapeGroup"></path>
        </g>
    </g>
</svg>